<svg width="2001" height="1237" viewBox="0 0 2001 1237" fill="#000"
    xmlns="http://www.w3.org/2000/svg">
    <g id="a624784f2834e21c94a1c0c9a58bbbaa">
        <path id="7869b07bea546aa59a5ee138adbcfd5a"
            d="M1270.57 1104.15H729.71V132.15H1270.58L1270.57 1104.15Z" fill="#fff"></path>
        <path id="b54e3ab4d7044a9f288082bc6b864ae6"
            d="M764 618.17C764 421 856.32 245.36 1000.08 132.17C891.261 46.3647 756.669 -0.204758 618.09 9.6031e-07C276.72 9.6031e-07 0 276.76 0 618.17C0 959.58 276.72 1236.34 618.09 1236.34C756.672 1236.55 891.268 1189.98 1000.09 1104.17C856.34 991 764 815.35 764 618.17Z"
            fill="#fff"></path>
        <path id="67f94b4d1b83252a6619ed6e0cc0a3a1"
            d="M2000.25 618.17C2000.25 959.58 1723.53 1236.34 1382.16 1236.34C1243.56 1236.54 1108.95 1189.97 1000.11 1104.17C1143.91 990.98 1236.23 815.35 1236.23 618.17C1236.23 420.99 1143.91 245.36 1000.11 132.17C1108.95 46.3673 1243.56 -0.201169 1382.15 -2.24915e-05C1723.52 -2.24915e-05 2000.24 276.76 2000.24 618.17"
            fill="#fff"></path>
    </g>
</svg>